<svg xmlns="http://www.w3.org/2000/svg" version="1.1"
    xmlns:xlink="http://www.w3.org/1999/xlink"
    xmlns:svgjs="http://svgjs.dev/svgjs" width="120" height="30" viewBox="0 0 2000 1500">
    <rect width="120" height="30" fill="#ffffff"></rect>
    <g transform="matrix(0.75,0,0,0.75,249.09092256082772,395.7565345648892)">
        <svg viewBox="0 0 396 187" data-background-color="#ffffff" preserveAspectRatio="xMidYMid meet" height="944" width="2000"
            xmlns="http://www.w3.org/2000/svg"
            xmlns:xlink="http://www.w3.org/1999/xlink">
            <g id="tight-bounds" transform="matrix(1,0,0,1,0.23999644394146458,0.06430513610976618)">
                <svg viewBox="0 0 395.5199999999999 186.87138972778047" height="186.87138972778047" width="395.5199999999999">
                    <g>
                        <svg viewBox="0 0 668.5957576371538 315.8915311381302" height="186.87138972778047" width="395.5199999999999">
                            <g transform="matrix(1,0,0,1,273.0757576371538,97.27801951026663)">
                                <svg viewBox="0 0 395.52 121.33549211759691" height="121.33549211759691" width="395.52">
                                    <g id="textblocktransform">
                                        <svg viewBox="0 0 395.52 121.33549211759691" height="121.33549211759691" width="395.52" id="textblock">
                                            <g>
                                                <svg viewBox="0 0 395.52 121.33549211759691" height="121.33549211759691" width="395.52">
                                                    <g transform="matrix(1,0,0,1,0,0)">
                                                        <svg width="395.52" viewBox="2.6500000953674316 -35.5 117.33999633789062 36" height="121.33549211759691" data-palette-color="#233565">
                                                            <path d="M3.9-26.35L3.9-26.35Q3.9-31.2 6.35-33.35 8.8-35.5 14.3-35.5L14.3-35.5Q18.15-35.5 20.5-33.5 22.85-31.5 23.9-27.4L23.9-27.4 19.25-23.9 16.8-23.9 22.2-27.95Q21.15-31.3 19.18-32.65 17.2-34 14.3-34L14.3-34Q12.3-34 10.93-33.75 9.55-33.5 8.18-32.77 6.8-32.05 6.1-30.45 5.4-28.85 5.4-26.35L5.4-26.35Q5.4-24.15 7.43-22.45 9.45-20.75 12.35-19.55 15.25-18.35 18.18-17.1 21.1-15.85 23.13-13.9 25.15-11.95 25.15-9.4L25.15-9.4Q25.15-4.4 22.68-1.95 20.2 0.5 14.2 0.5L14.2 0.5Q9.3 0.5 6.5-1.48 3.7-3.45 2.65-7.6L2.65-7.6 4.05-8.2Q5.05-4.15 7.48-2.58 9.9-1 14.2-1L14.2-1Q19-1 21.33-2.85 23.65-4.7 23.65-9.4L23.65-9.4Q23.65-11.6 21.63-13.3 19.6-15 16.68-16.2 13.75-17.4 10.85-18.65 7.95-19.9 5.93-21.85 3.9-23.8 3.9-26.35ZM34.5-35L34.5 0 33 0 33-35 34.5-35ZM62.34-19.8L62.34-18.3 47.5-18.3 62.8-33.5 45.9-33.5 45.9 0 44.4 0 44.4-35 66.44-35 51.15-19.8 62.34-19.8ZM72.79 0L72.79-1.5 91.19-1.5 80.59-30.65 69.44 0 67.84 0 80.59-35.05 93.34 0 72.79 0ZM94.99-35L119.99-35 119.99-33.5 108.24-33.5 108.24 0 106.74 0 106.74-33.5 94.99-33.5 94.99-35Z" opacity="1" transform="matrix(1,0,0,1,0,0)" fill="#233565" class="wordmark-text-0" data-fill-palette-color="primary" id="text-0"></path>
                                                        </svg>
                                                    </g>
                                                </svg>
                                            </g>
                                        </svg>
                                    </g>
                                </svg>
                            </g>
                            <g>
                                <svg viewBox="0 0 244.43135999999998 315.8915311381302" height="315.8915311381302" width="244.43135999999998">
                                    <g>
                                        <svg xmlns="http://www.w3.org/2000/svg"
                                            xmlns:xlink="http://www.w3.org/1999/xlink" version="1.1" x="0" y="0" viewBox="12.982999801635742 1 75.68599700927734 97.81300354003906" enable-background="new 0 0 100 100" xml:space="preserve" height="315.8915311381302" width="244.43135999999998" class="icon-icon-0" data-fill-palette-color="accent" id="icon-0">
                                            <g fill="#8bd8bc" data-fill-palette-color="accent">
                                                <polygon fill-rule="evenodd" clip-rule="evenodd" points="12.983,10.59 30.001,98.813 24.129,39.764 53.15,37.872 53.096,27.989    64.549,1 53.622,18.977  " fill="#8bd8bc" data-fill-palette-color="accent"></polygon>
                                                <polygon fill-rule="evenodd" clip-rule="evenodd" points="59.389,54.548 64.549,1.007 55.809,40.723 36.197,41.768 37.767,62.23    30.001,98.813 42.058,58.914  " fill="#8bd8bc" data-fill-palette-color="accent"></polygon>
                                                <polygon fill-rule="evenodd" clip-rule="evenodd" points="62.8,67.182 63.349,56.729 47.37,60.484 47.338,72.281 30.001,98.813    51.681,71.197  " fill="#8bd8bc" data-fill-palette-color="accent"></polygon>
                                                <polygon fill-rule="evenodd" clip-rule="evenodd" points="65.711,62.394 80.552,57.663 82.061,45.131 66.162,47.226  " fill="#8bd8bc" data-fill-palette-color="accent"></polygon>
                                                <polygon fill-rule="evenodd" clip-rule="evenodd" points="72.07,44.502 83.058,43.085 84.639,32.807 76.56,32.434 64.549,1    72.979,31.967  " fill="#8bd8bc" data-fill-palette-color="accent"></polygon>
                                                <polygon fill-rule="evenodd" clip-rule="evenodd" points="87.413,31.294 88.669,21.788 79.125,19.094 64.549,1 79.032,23.437    78.61,30.437  " fill="#8bd8bc" data-fill-palette-color="accent"></polygon>
                                            </g>
                                        </svg>
                                    </g>
                                </svg>
                            </g>
                        </svg>
                    </g>
                    <defs></defs>
                </svg>
                <rect width="395.5199999999999" height="186.87138972778047" fill="none" stroke="none" visibility="hidden"></rect>
            </g>
        </svg>
    </g>
</svg>